<svg width="58" height="60" viewBox="0 0 58 60" fill="none" xmlns="http://www.w3.org/2000/svg">
<path d="M33.8999 16.381C33.8999 14.7234 34.416 13.103 35.383 11.7247C36.3499 10.3465 37.7243 9.2723 39.3323 8.63796C40.9403 8.00363 42.7097 7.83766 44.4167 8.16104C46.1237 8.48442 47.6917 9.28263 48.9224 10.4547C50.1531 11.6268 50.9913 13.1202 51.3308 14.7459C51.6704 16.3717 51.4961 18.0568 50.83 19.5882C50.164 21.1196 49.0361 22.4286 47.5889 23.3495C46.1418 24.2704 44.4404 24.7619 42.6999 24.7619L42.6999 22.6667C44.0053 22.6667 45.2813 22.298 46.3667 21.6073C47.452 20.9167 48.298 19.935 48.7975 18.7864C49.297 17.6378 49.4277 16.374 49.1731 15.1547C48.9184 13.9354 48.2898 12.8154 47.3668 11.9363C46.4438 11.0572 45.2678 10.4586 43.9875 10.216C42.7072 9.97348 41.3802 10.098 40.1742 10.5737C38.9682 11.0495 37.9374 11.8551 37.2122 12.8888C36.487 13.9225 36.0999 15.1378 36.0999 16.381H33.8999Z" fill="white"/>
<path d="M33.8999 44.6667C33.8999 46.1171 34.3515 47.5349 35.1976 48.7408C36.0437 49.9468 37.2462 50.8867 38.6532 51.4418C40.0602 51.9968 41.6084 52.1421 43.1021 51.8591C44.5958 51.5761 45.9678 50.8777 47.0446 49.8521C48.1215 48.8265 48.8548 47.5199 49.1519 46.0973C49.4491 44.6748 49.2966 43.2003 48.7138 41.8603C48.131 40.5203 47.144 39.375 45.8778 38.5692C44.6115 37.7634 43.1228 37.3333 41.5999 37.3333L41.5999 39.4233C42.6888 39.4233 43.7532 39.7308 44.6586 40.307C45.564 40.8831 46.2696 41.702 46.6863 42.6601C47.103 43.6182 47.212 44.6725 46.9996 45.6896C46.7872 46.7067 46.2628 47.641 45.4929 48.3743C44.7229 49.1076 43.7419 49.6069 42.674 49.8093C41.606 50.0116 40.499 49.9077 39.493 49.5109C38.487 49.114 37.6272 48.442 37.0222 47.5797C36.4173 46.7174 36.0944 45.7037 36.0944 44.6667H33.8999Z" fill="white"/>
<line x1="15.2" y1="38.3811" x2="41.6" y2="38.3811" stroke="white" stroke-width="2.09524"/>
<line x1="7.5" y1="23.7143" x2="42.7" y2="23.7143" stroke="white" stroke-width="2.09524"/>
<line x1="15.2" y1="31.0476" x2="48.2" y2="31.0476" stroke="white" stroke-width="2.09524"/>
</svg>
